HIERARCHY
ROOT Hips
{
	OFFSET 0.000000 0.000000 0.000000
	CHANNELS 6 Xposition Yposition Zposition Xrotation Yrotation Zrotation
	JOINT LeftUpLeg_virtual
	{
		OFFSET 0.000000 0.000000 0.000000
		CHANNELS 3 Xrotation Yrotation Zrotation
		JOINT LeftUpLeg
		{
			OFFSET 11.394100 -6.187798 -0.413800
			CHANNELS 3 Xrotation Yrotation Zrotation
			JOINT LeftLeg
			{
				OFFSET 0.430247 -32.302673 3.732800
				CHANNELS 3 Xrotation Yrotation Zrotation
				JOINT LeftFoot
				{
					OFFSET -0.430247 -48.264931 -6.423300
					CHANNELS 3 Xrotation Yrotation Zrotation
					JOINT LeftToeBase
					{
						OFFSET 4.230900 -16.068199 23.438400
						CHANNELS 3 Xrotation Yrotation Zrotation
						JOINT LeftToe_End
						{
							OFFSET 4.510700 0.695400 19.974600
							CHANNELS 3 Xrotation Yrotation Zrotation
							End Site
							{
								OFFSET 0 0 0
							}
						}
					}
				}
			}
		}
	}
	JOINT RightUpLeg_virtual
	{
		OFFSET 0.000000 0.000000 0.000000
		CHANNELS 3 Xrotation Yrotation Zrotation
		JOINT RightUpLeg
		{
			OFFSET -11.333700 -6.187798 -0.413800
			CHANNELS 3 Xrotation Yrotation Zrotation
			JOINT RightLeg
			{
				OFFSET -0.430392 -32.302628 3.733000
				CHANNELS 3 Xrotation Yrotation Zrotation
				JOINT RightFoot
				{
					OFFSET 0.430392 -48.264973 -6.423500
					CHANNELS 3 Xrotation Yrotation Zrotation
					JOINT RightToeBase
					{
						OFFSET -4.230900 -16.068199 23.438400
						CHANNELS 3 Xrotation Yrotation Zrotation
						JOINT RightToe_End
						{
							OFFSET -4.510700 0.695400 19.974600
							CHANNELS 3 Xrotation Yrotation Zrotation
							End Site
							{
								OFFSET 0 0 0
							}
						}
					}
				}
			}
		}
	}
	JOINT Spine_virtual
	{
		OFFSET 0.000000 0.000000 0.000000
		CHANNELS 3 Xrotation Yrotation Zrotation
		JOINT Spine
		{
			OFFSET -0.002400 12.777504 0.315300
			CHANNELS 3 Xrotation Yrotation Zrotation
			JOINT Spine1
			{
				OFFSET -0.002067 5.816869 0.032633
				CHANNELS 3 Xrotation Yrotation Zrotation
				JOINT Spine1_split
				{
					OFFSET -0.002067 5.816869 0.032633
					CHANNELS 3 Xrotation Yrotation Zrotation
					JOINT Spine2
					{
						OFFSET -0.002067 5.816869 0.032633
						CHANNELS 3 Xrotation Yrotation Zrotation
						JOINT Neck_virtual
						{
							OFFSET 0.000000 0.000000 0.000000
							CHANNELS 3 Xrotation Yrotation Zrotation
							JOINT Neck
							{
								OFFSET -0.003700 21.199493 -0.826900
								CHANNELS 3 Xrotation Yrotation Zrotation
								JOINT Head
								{
									OFFSET 0.000000 20.442200 4.834800
									CHANNELS 3 Xrotation Yrotation Zrotation
									JOINT HeadTop_End
									{
										OFFSET 0.000000 34.668396 4.968400
										CHANNELS 3 Xrotation Yrotation Zrotation
										End Site
										{
											OFFSET 0 0 0
										}
									}
								}
							}
						}
						JOINT LeftShoulder_virtual
						{
							OFFSET 0.000000 0.000000 0.000000
							CHANNELS 3 Xrotation Yrotation Zrotation
							JOINT LeftShoulder
							{
								OFFSET 3.288150 8.794197 -1.372250
								CHANNELS 3 Xrotation Yrotation Zrotation
								JOINT LeftShoulder_split
								{
									OFFSET 3.288150 8.794197 -1.372250
									CHANNELS 3 Xrotation Yrotation Zrotation
									JOINT LeftArm
									{
										OFFSET 11.953299 -2.279007 -0.146200
										CHANNELS 3 Xrotation Yrotation Zrotation
										JOINT LeftForeArm
										{
											OFFSET 18.448900 0.000000 0.000000
											CHANNELS 3 Xrotation Yrotation Zrotation
											JOINT LeftHand
											{
												OFFSET 29.527798 0.000000 0.000000
												CHANNELS 3 Xrotation Yrotation Zrotation
												End Site
												{
													OFFSET 0 0 0
												}
											}
										}
									}
								}
							}
						}
						JOINT RightShoulder_virtual
						{
							OFFSET 0.000000 0.000000 0.000000
							CHANNELS 3 Xrotation Yrotation Zrotation
							JOINT RightShoulder
							{
								OFFSET -3.249400 8.794197 -1.372250
								CHANNELS 3 Xrotation Yrotation Zrotation
								JOINT RightShoulder_split
								{
									OFFSET -3.249400 8.794197 -1.372250
									CHANNELS 3 Xrotation Yrotation Zrotation
									JOINT RightArm
									{
										OFFSET -11.953299 -2.279007 -0.146200
										CHANNELS 3 Xrotation Yrotation Zrotation
										JOINT RightForeArm
										{
											OFFSET -18.448900 0.000000 0.000000
											CHANNELS 3 Xrotation Yrotation Zrotation
											JOINT RightHand
											{
												OFFSET -29.527802 0.000000 0.000000
												CHANNELS 3 Xrotation Yrotation Zrotation
												End Site
												{
													OFFSET 0 0 0
												}
											}
										}
									}
								}
							}
						}
					}
				}
			}
		}
	}
}
MOTION
Frames: 4
Frame Time: 0.03333333
3.759503 95.363800 1.771137 0.000000 0.000000 0.000000 15.984352 -85.293142 17.616789 -27.337354 29.770763 26.580238 21.878044 -9.381137 1.770806 -1.322395 2.099550 -14.773313 0.743389 -0.423753 -0.814265 0.000000 0.000000 0.000000 7.342030 -84.801443 9.798835 -31.571282 -9.473729 -20.695955 14.666665 3.829637 -5.761487 8.043903 7.804522 19.939195 2.866792 -0.207764 0.326437 0.000000 0.000000 0.000000 7.249999 -81.151178 9.317090 6.605190 -3.685573 -2.704075 1.984965 -7.924367 -0.430438 0.505428 0.315501 0.192625 0.000000 0.000000 0.000000 1.977099 -8.382670 -0.873858 -8.351493 6.219083 7.020684 91.225332 78.026565 -95.091676 0.000000 0.000000 0.000000 3.300988 -8.965416 -0.208692 5.113832 -1.280193 11.103254 -3.613930 -4.442818 3.043365 -35.366491 11.723081 -3.174696 -3.882126 -10.870571 0.460011 0.000000 0.000000 0.000000 2.533709 -8.682021 -0.827838 -0.105703 1.099858 -21.503498 0.923203 1.581584 7.586077 -49.862140 42.139976 44.878263 179.096549 37.379563 -177.985140 0.000000 0.000000 0.000000 
3.675990 95.356018 1.762325 0.000000 0.000000 0.000000 15.207683 -85.195968 16.895347 -27.230349 29.739579 26.516673 21.833579 -9.468226 1.760916 -1.333543 2.123136 -14.779426 0.733702 -0.423123 -0.819330 0.000000 0.000000 0.000000 6.717941 -84.709686 9.241483 -31.336525 -9.408537 -20.744604 14.715023 3.655121 -5.771214 7.832985 7.751884 20.049515 2.853184 -0.215555 0.318111 0.000000 0.000000 0.000000 7.043630 -81.044416 9.161340 6.583842 -3.781839 -2.767348 1.978612 -8.016449 -0.414756 0.505436 0.315830 0.188669 0.000000 0.000000 0.000000 1.981322 -8.476215 -0.862376 -8.373009 6.291089 7.241539 93.917956 77.959602 -97.583466 0.000000 0.000000 0.000000 3.319479 -9.059790 -0.183682 5.023447 -1.056760 11.122476 -3.640895 -4.444539 3.025380 -35.325971 11.572736 -3.396388 -3.890632 -10.886800 0.454095 0.000000 0.000000 0.000000 2.549746 -8.778046 -0.820386 -0.012268 1.150347 -21.426507 0.905755 1.586363 7.641524 -49.362064 41.684508 44.644808 179.116520 37.018570 -177.976643 0.000000 0.000000 0.000000 
3.594233 95.348755 1.757736 0.000000 0.000000 0.000000 14.387993 -85.102272 16.139725 -27.128209 29.707139 26.447479 21.796785 -9.549943 1.756546 -1.334800 2.139813 -14.787465 0.728888 -0.421111 -0.826151 0.000000 0.000000 0.000000 6.056606 -84.615553 8.653947 -31.088453 -9.348140 -20.795479 14.761200 3.481667 -5.785447 7.615623 7.695115 20.169043 2.832196 -0.223893 0.314997 0.000000 0.000000 0.000000 6.785241 -80.942236 8.963787 6.572901 -3.876079 -2.842680 1.970246 -8.108010 -0.392910 0.506497 0.314725 0.186210 0.000000 0.000000 0.000000 1.985021 -8.568622 -0.845497 -8.394162 6.370863 7.462076 96.585582 77.855059 -100.032526 0.000000 0.000000 0.000000 3.341069 -9.154221 -0.152018 4.931941 -0.841545 11.144969 -3.661040 -4.443525 3.011412 -35.294712 11.434773 -3.616732 -3.905844 -10.889618 0.439871 0.000000 0.000000 0.000000 2.565633 -8.873457 -0.807505 0.087457 1.202504 -21.341029 0.887511 1.599168 7.693412 -48.829955 41.217193 44.385721 179.144578 36.663991 -177.966412 0.000000 0.000000 0.000000 
3.514549 95.339630 1.754570 0.000000 0.000000 0.000000 13.540128 -85.010331 15.362243 -27.034215 29.673719 26.375802 21.768482 -9.626096 1.756723 -1.331924 2.151903 -14.795578 0.732200 -0.417521 -0.836521 0.000000 0.000000 0.000000 5.370093 -84.516201 8.045464 -30.830712 -9.292197 -20.850705 14.813330 3.310610 -5.804097 7.396002 7.635075 20.301095 2.800542 -0.233184 0.318087 0.000000 0.000000 0.000000 6.480177 -80.845281 8.727967 6.574846 -3.968202 -2.928390 1.960110 -8.197238 -0.364555 0.506952 0.315340 0.186169 0.000000 0.000000 0.000000 1.987890 -8.657524 -0.823094 -8.412134 6.457374 7.673558 99.167872 77.717512 -102.389208 0.000000 0.000000 0.000000 3.365111 -9.246899 -0.113873 4.843001 -0.645872 11.171836 -3.668796 -4.439495 2.999239 -35.273986 11.320161 -3.824576 -3.927194 -10.886563 0.417753 0.000000 0.000000 0.000000 2.580486 -8.966240 -0.788469 0.193113 1.259901 -21.246171 0.866657 1.614605 7.736921 -48.273868 40.753560 44.098024 179.184453 36.328178 -177.956727 0.000000 0.000000 0.000000 
